<?xml version="1.0" encoding="UTF-8"?><svg id="Layer_1" xmlns="http://www.w3.org/2000/svg" xmlns:xlink="http://www.w3.org/1999/xlink" viewBox="0 0 1356 1382.73"><defs><style>.cls-1{fill:url(#linear-gradient-12);}.cls-1,.cls-2,.cls-3,.cls-4,.cls-5,.cls-6,.cls-7,.cls-8,.cls-9,.cls-10,.cls-11,.cls-12,.cls-13,.cls-14,.cls-15,.cls-16,.cls-17,.cls-18,.cls-19,.cls-20,.cls-21{stroke-width:0px;}.cls-2{fill:url(#linear-gradient-17);}.cls-3{fill:url(#linear-gradient-19);}.cls-4{fill:url(#linear-gradient);}.cls-5{fill:url(#linear-gradient-21);}.cls-6{fill:url(#linear-gradient-6);}.cls-7{fill:url(#linear-gradient-15);}.cls-8{fill:url(#linear-gradient-11);}.cls-9{fill:url(#linear-gradient-5);}.cls-10{fill:url(#linear-gradient-13);}.cls-11{fill:url(#linear-gradient-16);}.cls-12{fill:url(#linear-gradient-20);}.cls-13{fill:url(#linear-gradient-14);}.cls-14{fill:url(#linear-gradient-2);}.cls-15{fill:url(#linear-gradient-7);}.cls-16{fill:url(#linear-gradient-3);}.cls-17{fill:url(#linear-gradient-9);}.cls-18{fill:url(#linear-gradient-8);}.cls-19{fill:url(#linear-gradient-18);}.cls-20{fill:url(#linear-gradient-10);}.cls-21{fill:url(#linear-gradient-4);}</style><linearGradient id="linear-gradient" x1="853.06" y1="688.86" x2="551.97" y2="541.16" gradientUnits="userSpaceOnUse"><stop offset="0" stop-color="#e7a401"/><stop offset="1" stop-color="#ebb001"/></linearGradient><linearGradient id="linear-gradient-2" x1="841.19" y1="1378.89" x2="841.19" y2="806.33" gradientUnits="userSpaceOnUse"><stop offset="0" stop-color="#69011f"/><stop offset=".95" stop-color="#9d0b32"/></linearGradient><linearGradient id="linear-gradient-3" x1="81.53" y1="531.22" x2="81.53" y2="316.17" gradientUnits="userSpaceOnUse"><stop offset="0" stop-color="#4f0528"/><stop offset=".58" stop-color="#6c1637"/></linearGradient><linearGradient id="linear-gradient-4" x1="151.75" y1="782.85" x2="340.35" y2="718.4" gradientUnits="userSpaceOnUse"><stop offset="0" stop-color="#c03457"/><stop offset=".61" stop-color="#d2646d"/></linearGradient><linearGradient id="linear-gradient-5" x1="47.57" y1="316.88" x2="714.53" y2="88.95" xlink:href="#linear-gradient-4"/><linearGradient id="linear-gradient-6" x1="1231.99" y1="810.86" x2="1231.99" y2="131.65" gradientUnits="userSpaceOnUse"><stop offset="0" stop-color="#067681"/><stop offset=".95" stop-color="#1594a0"/></linearGradient><linearGradient id="linear-gradient-7" x1="755.42" y1="1195.99" x2="755.42" y2="21.65" gradientUnits="userSpaceOnUse"><stop offset="0" stop-color="#040c23"/><stop offset=".54" stop-color="#115976"/><stop offset="1" stop-color="#3a7686"/></linearGradient><linearGradient id="linear-gradient-8" x1="1053.06" y1="1167.79" x2="1053.06" y2="662.63" gradientUnits="userSpaceOnUse"><stop offset="0" stop-color="#d27900"/><stop offset=".95" stop-color="#e6a105"/></linearGradient><linearGradient id="linear-gradient-9" x1="907.74" y1="603.15" x2="907.74" y2="422.47" gradientUnits="userSpaceOnUse"><stop offset="0" stop-color="#740529"/><stop offset=".95" stop-color="#da4b45"/></linearGradient><linearGradient id="linear-gradient-10" x1="821.03" y1="603.28" x2="821.03" y2="422.48" gradientTransform="translate(1850.62) rotate(-180) scale(1.26 -1)" gradientUnits="userSpaceOnUse"><stop offset="0" stop-color="#bd3a07"/><stop offset="1" stop-color="#f6b109"/></linearGradient><linearGradient id="linear-gradient-11" x1="1087.98" y1="458.97" x2="1087.98" y2="278.29" gradientTransform="translate(-16.4 31.09) rotate(-1.82)" gradientUnits="userSpaceOnUse"><stop offset="0" stop-color="#0e2047"/><stop offset="1" stop-color="#1b466f"/></linearGradient><linearGradient id="linear-gradient-12" x1="677.5" y1="459.1" x2="677.5" y2="278.3" gradientTransform="translate(1833.28 -27.83) rotate(178.18) scale(1.26 -1)" gradientUnits="userSpaceOnUse"><stop offset="0" stop-color="#033e74"/><stop offset="1" stop-color="#097fae"/></linearGradient><linearGradient id="linear-gradient-13" x1="445.32" y1="438.6" x2="445.32" y2="257.92" xlink:href="#linear-gradient-11"/><linearGradient id="linear-gradient-14" x1="1189.26" y1="438.73" x2="1189.26" y2="257.93" xlink:href="#linear-gradient-12"/><linearGradient id="linear-gradient-15" x1="741.57" y1="941.93" x2="741.57" y2="747.38" gradientUnits="userSpaceOnUse"><stop offset="0" stop-color="#6f0024"/><stop offset="1" stop-color="#da4b45"/></linearGradient><linearGradient id="linear-gradient-16" x1="962.52" y1="942.07" x2="962.52" y2="747.39" xlink:href="#linear-gradient-10"/><linearGradient id="linear-gradient-17" x1="432.47" y1="1159.13" x2="529.66" y2="1313.52" gradientTransform="translate(0 -39.75) scale(1 .63)" gradientUnits="userSpaceOnUse"><stop offset=".11" stop-color="#e97e06"/><stop offset=".89" stop-color="#6a1701"/></linearGradient><linearGradient id="linear-gradient-18" x1="358.08" y1="1214.95" x2="480.54" y2="1409.49" gradientTransform="translate(0 -39.75) scale(1 .63)" gradientUnits="userSpaceOnUse"><stop offset="0" stop-color="#0f2c60"/><stop offset=".14" stop-color="#092e5e"/><stop offset=".89" stop-color="#020919"/></linearGradient><linearGradient id="linear-gradient-19" x1="246.17" y1="530.59" x2="246.17" y2="370.75" gradientTransform="translate(-16.4 31.09) rotate(-1.82)" gradientUnits="userSpaceOnUse"><stop offset="0" stop-color="#19061a"/><stop offset="1" stop-color="#380e2e"/></linearGradient><linearGradient id="linear-gradient-20" x1="1339.73" y1="530.71" x2="1339.73" y2="370.76" gradientTransform="translate(1833.28 -27.83) rotate(178.18) scale(1.26 -1)" gradientUnits="userSpaceOnUse"><stop offset="0" stop-color="#6c0123"/><stop offset="1" stop-color="#c52444"/></linearGradient><linearGradient id="linear-gradient-21" x1="604.71" y1="1379.84" x2="604.71" y2="948.68" gradientUnits="userSpaceOnUse"><stop offset="0" stop-color="#be3f00"/><stop offset=".95" stop-color="#e46704"/></linearGradient></defs><path class="cls-4" d="M714.76,433.19s-37.69,69.57-19.52,114.38,72.65,70.23,113.82,92.03c41.17,21.8,65.21,32.56,65.21,32.56l-30.54,41.49-21.36,57.95s-64.18-71.44-151.36-85.97c-87.18-14.53-221.21-51.04-294.05-42.47,135.43-74.98,337.79-209.95,337.79-209.95Z"/><path class="cls-14" d="M691.6,953.22s105.35,25.43,123.51-41.17c18.16-66.6,12.11-73.86,23.01-83.55s87.18-29.06,87.18-29.06l65.47,133.2-184.13,238.55s-24.79,10.55-63.86,71.87c-39.07,61.33-51.17,139.68-51.17,139.68v-429.52Z"/><path class="cls-16" d="M4.6,366.1c-1.73,4.01-2.75,8.28-3.03,12.64-1.71,26.93-6.73,136.42,18.59,208.18,29.06,82.34,46.01,108.98,69.02,150.15,23.01,41.17,55.1,74.47,55.1,74.47,0,0-25.43-66.6-22.4-122.91,14.53-60.54,41.17-75.08,41.17-75.08,0,0-93.24-48.44-98.08-156.21-4.84-107.77,85.37-206.46,85.37-206.46,0,0-47.2,10.5-89.61,42.38-32.86,24.71-50.05,58.74-56.13,72.82Z"/><path class="cls-21" d="M287.29,587.87s-54.54-20.66-107.86,11.9c-53.32,32.56-66.81,95.01-60.67,128.57,6.14,33.55,24.91,82.6,24.91,82.6,0,0,32.09,43.3,55.1,64.94,23.01,21.64,58.03,47.84,58.03,47.84,0,0-36.14-104.32-32.6-193.3,41.17-128.94,63.09-142.54,63.09-142.54Z"/><path class="cls-9" d="M709.77,162.5S574.15-17.92,386.46,1.46C227.09,17.91,142.81,78.88,81.71,163.62c-19.54,27.11-35.01,56.95-46.06,88.49C10.43,324.17,2.61,371.99,2.61,371.99c0,0,16.95-54.49,79.92-85.97,38.75-19.37,53.28-18.16,53.28-18.16,0,0,75.08-102.93,201.01-117.46,125.93-14.53,204.64,56.91,230.07,83.55,44.09,49.44,82.11,131.17,67.81,82.34,0,0,9.69-52.07,32.69-88.4s42.38-65.39,42.38-65.39Z"/><path class="cls-6" d="M1242.31,123.47s124.97,155.28,112.86,301.79c-12.11,146.52-47.4,254.11-127.14,331.78-93.24,90.82-105.35,56.91-116.25,23.01-10.9-33.9,1.21-83.55,41.17-123.51,39.96-39.96,93.24-112.61,106.56-146.52,5.78-14.72,10.18-31.35,13.3-45.45,4.28-19.34,10.37-38.21,17.89-56.53,9.78-23.83,21.29-63.78,16.56-112.78-7.79-80.7-12.98-84.76-30.37-119.06-17.38-34.3-34.58-52.74-34.58-52.74Z"/><path class="cls-15" d="M592.31,1203.87s-113.82-130.78-244.6-204.64c-130.78-73.86-148.94-188.9-148.94-219.17s6.05-131.99,104.14-204.64c98.08-72.65,192.53-89.61,254.29-152.57,61.76-62.97,55.7-72.65,70.23-117.46,14.53-44.8,72.65-163.47,148.94-225.23C852.65,18.41,911.99,7.51,987.06,7.51s152.57,27.85,215.54,76.29c62.97,48.44,115.03,138.04,108.98,222.8-6.05,84.76-3.63,106.56-112.61,224.02-108.98,117.46-133.2,119.88-128.35,194.95,4.84,75.08,50.51,81.74,93.24,87.18-56.19,25.86-54.52,40.97-118.59,53.04-1.21.23-2.44.36-3.67.39-9.36.22-44.53-2.58-72.47-53.19-1.07-1.93-2.44-3.69-4.01-5.25-52.69-52.13-76.26-21.43-83.41-8.32-.2.37-.42.74-.64,1.1-9.41,15.1-31.86,13.72-40.26-1.97-1.82-3.41-3.93-6.83-6.32-10.03-3.41-4.54-5.87-7.9-7.64-10.37-3.51-4.89-5.01-10.93-4.16-16.89,1.63-11.43,7.92-31.98,29.93-59.58.82-1.03,1.55-2.13,2.2-3.28,50.69-89.19,323.37-237.78,330.71-335.27.1-1.28.25-2.54.53-3.79,4.1-18.36,33.67-176.46-159.04-199.27-204.64-24.22-283.35,248.23-325.73,291.83s-6.05,64.18-305.14,181.63c-100.5,43.59-110.19,142.89-93.24,188.9,15.97,43.33,43.74,81.3,73.22,94.68,3.32,1.51,6.97,2.15,10.62,1.98,57.74-2.63,36.07-9.13,106.27,42.59,23.01,16.95,77.5,101.71,90.82,158.63,13.32,56.91,8.48,83.55,8.48,83.55Z"/><path class="cls-18" d="M1300.68,656.55s-82.34,176.79-233.7,296.67-164.68,122.3-203.43,157.42-58.12,60.54-58.12,60.54c0,0,9.69-43.59,18.16-61.76,8.48-18.16,92.03-171.95,87.18-208.27-4.84-36.33-9.69-49.65-24.22-62.97-8.5-7.79-18.66-12.27-25.63-14.64-4.51-1.54-6.6-6.71-4.47-10.97,7.5-14.98,26.47-44.12,60.54-43.82,45.84.41,65.21,34.32,87.01,67.01s84.65,20.98,141.01-16.76c56.37-37.73,87.85-77.69,112.07-101.91,23.01-33.9,43.59-60.54,43.59-60.54Z"/><path class="cls-17" d="M872.03,415.58l-3.63,184.06s35.12,1.21,55.7-29.06c20.59-30.27,22.98-35.11,22.99-63.57s-9.67-49.04-21.78-64.79-25.43-23.01-53.28-26.64Z"/><path class="cls-20" d="M872.03,415.58l-3.63,184.06s-49.22,3.63-75.08-26.64c-25.85-30.27-26.15-35.99-26.17-64.45-.02-28.46,12.15-49.04,27.35-64.79,15.21-15.74,33.93-28.18,77.52-28.18Z"/><path class="cls-8" d="M1043.97,268.85l2.23,184.08s35.14.09,54.75-30.82c19.61-30.91,21.85-35.82,20.96-64.27s-11.23-48.71-23.83-64.06c-12.6-15.35-26.15-22.19-54.1-24.93Z"/><path class="cls-1" d="M1043.97,268.85l2.23,184.08s-49.08,5.2-75.89-24.24c-28.06-34.91-25.64-36.12-28.21-63.58-.93-28.44,10.58-49.41,25.27-65.62,14.7-16.22,33.02-29.25,76.59-30.64Z"/><path class="cls-10" d="M400.99,268.95l2.23,184.08s35.14.09,54.75-30.82c19.61-30.91,21.85-35.82,20.96-64.27s-11.23-48.71-23.83-64.06c-12.6-15.35-26.15-22.19-54.1-24.93Z"/><path class="cls-13" d="M400.99,268.95l2.23,184.08s-49.08,5.2-75.89-24.24c-28.06-34.91-25.64-36.12-28.21-63.58-.93-28.44,10.58-49.41,25.27-65.62,14.7-16.22,33.02-29.25,76.59-30.64Z"/><path class="cls-7" d="M701.19,739.96l-4.11,198.19s39.7,1.3,62.98-31.29c23.27-32.6,25.98-37.81,25.99-68.45.02-30.64-10.93-52.81-24.63-69.76-13.69-16.95-28.75-24.77-60.24-28.69Z"/><path class="cls-11" d="M701.19,739.96l-4.11,198.19s-55.65,3.91-84.88-28.69c-29.23-32.6-29.56-38.75-29.58-69.4-.02-30.64,13.73-52.81,30.92-69.76,17.19-16.95,38.36-30.35,87.65-30.35Z"/><path class="cls-2" d="M525.6,805.08c16.95-73.86-29.06-106.56-46.01-112.61-12.11-6.05-25.43-10.9-43.59-10.9s-55.7,19.37-55.7,19.37"/><path class="cls-19" d="M381.01,700.75s-42.38,18.16-42.38,78.71,43.59,99.29,92.03,99.29c43.16,0,63.24-22.11,76.53-36.36,4.8-5.14,8.95-10.87,12.14-17.13,4.56-8.96,5.35-14.91,6.39-19.77,0-2.42-.07-2.1-1.86-5.53-6.86-13.17-27.72-49.58-58.08-70.15-48.44-31.48-84.76-29.06-84.76-29.06"/><path class="cls-3" d="M209.67,388.73l1.97,162.85s31.08.08,48.43-27.27c17.35-27.35,19.33-31.69,18.54-56.86-.79-25.16-9.93-43.09-21.08-56.67s-23.13-19.63-47.86-22.05Z"/><path class="cls-12" d="M209.67,388.73l1.97,162.85s-43.42,4.6-67.13-21.44c-23.46-29.19-22.83-31.75-24.61-52.45-.37-4.3-.48-8.63-.15-12.93,1.58-20.6,10.79-36.37,22.17-48.92,13-14.35,29.21-25.88,67.75-27.1Z"/><path class="cls-5" d="M691.6,953.22s-38.75,10.9-76.29,12.11-33.9-23.01-49.65-21.8-23.01,10.9-32.69,23.01c-9.69,12.11-15.15,22.8-15.15,22.8l74.49,214.53s30.27,35.12,50.86,73.86c20.59,38.75,48.44,105,48.44,105v-429.52Z"/></svg>